<?xml version="1.0" encoding="UTF-8" standalone="no"?>
<!DOCTYPE svg PUBLIC "-//W3C//DTD SVG 1.1//EN"
 "http://www.w3.org/Graphics/SVG/1.1/DTD/svg11.dtd">
<!-- Generated by graphviz version 2.40.1 (20161225.0304)
 -->
<!-- Title: dependencies Pages: 1 -->
<svg width="504pt" height="211pt"
 viewBox="0.00 0.00 504.00 211.00" xmlns="http://www.w3.org/2000/svg" xmlns:xlink="http://www.w3.org/1999/xlink">
<g id="graph0" class="graph" transform="scale(1 1) rotate(0) translate(4 207)">
<title>dependencies</title>
<polygon fill="#ffffff" stroke="transparent" points="-4,4 -4,-207 500,-207 500,4 -4,4"/>
<text text-anchor="start" x="227.0091" y="-42.4" font-family="sans-serif" font-weight="bold" font-size="14.00" fill="#000000">Legend</text>
<polygon fill="#ffffb3" stroke="transparent" points="14,-10 14,-30 34,-30 34,-10 14,-10"/>
<text text-anchor="start" x="37.629" y="-15.4" font-family="sans-serif" font-size="14.00" fill="#000000"> &#160;Declarations</text>
<polygon fill="#8dd3c7" stroke="transparent" points="127,-10 127,-30 147,-30 147,-10 127,-10"/>
<text text-anchor="start" x="150.7251" y="-15.4" font-family="sans-serif" font-size="14.00" fill="#000000"> &#160;Module</text>
<polygon fill="#80b1d3" stroke="transparent" points="213,-10 213,-30 233,-30 233,-10 213,-10"/>
<text text-anchor="start" x="236.7812" y="-15.4" font-family="sans-serif" font-size="14.00" fill="#000000"> &#160;Bootstrap</text>
<polygon fill="#fdb462" stroke="transparent" points="310,-10 310,-30 330,-30 330,-10 310,-10"/>
<text text-anchor="start" x="333.6732" y="-15.4" font-family="sans-serif" font-size="14.00" fill="#000000"> &#160;Providers</text>
<polygon fill="#fb8072" stroke="transparent" points="406,-10 406,-30 426,-30 426,-10 406,-10"/>
<text text-anchor="start" x="429.7258" y="-15.4" font-family="sans-serif" font-size="14.00" fill="#000000"> &#160;Exports</text>
<g id="clust1" class="cluster">
<title>cluster_AngularWebStoreModule</title>
<polygon fill="none" stroke="#000000" stroke-dasharray="1,5" points="33,-70 33,-195 463,-195 463,-70 33,-70"/>
</g>
<g id="clust6" class="cluster">
<title>cluster_AngularWebStoreModule_providers</title>
<polygon fill="none" stroke="#000000" points="41,-78 41,-130 455,-130 455,-78 41,-78"/>
</g>
<!-- LocalStorageService -->
<g id="node1" class="node">
<title>LocalStorageService</title>
<ellipse fill="#fdb462" stroke="#000000" cx="356" cy="-104" rx="91.4481" ry="18"/>
<text text-anchor="middle" x="356" y="-99.8" font-family="Times,serif" font-size="14.00" fill="#000000">LocalStorageService</text>
</g>
<!-- AngularWebStoreModule -->
<g id="node3" class="node">
<title>AngularWebStoreModule</title>
<polygon fill="#8dd3c7" stroke="#000000" points="332.9003,-187 329.9003,-191 308.9003,-191 305.9003,-187 171.0997,-187 171.0997,-151 332.9003,-151 332.9003,-187"/>
<text text-anchor="middle" x="252" y="-164.8" font-family="Times,serif" font-size="14.00" fill="#000000">AngularWebStoreModule</text>
</g>
<!-- LocalStorageService&#45;&gt;AngularWebStoreModule -->
<g id="edge1" class="edge">
<title>LocalStorageService&#45;&gt;AngularWebStoreModule</title>
<path fill="none" stroke="#000000" d="M298.6129,-118.104C298.6129,-118.104 298.6129,-140.7209 298.6129,-140.7209"/>
<polygon fill="#000000" stroke="#000000" points="295.113,-140.7209 298.6129,-150.7209 302.113,-140.7209 295.113,-140.7209"/>
</g>
<!-- SessionStorageService -->
<g id="node2" class="node">
<title>SessionStorageService</title>
<ellipse fill="#fdb462" stroke="#000000" cx="148" cy="-104" rx="98.9916" ry="18"/>
<text text-anchor="middle" x="148" y="-99.8" font-family="Times,serif" font-size="14.00" fill="#000000">SessionStorageService</text>
</g>
<!-- SessionStorageService&#45;&gt;AngularWebStoreModule -->
<g id="edge2" class="edge">
<title>SessionStorageService&#45;&gt;AngularWebStoreModule</title>
<path fill="none" stroke="#000000" d="M209.148,-118.4256C209.148,-118.4256 209.148,-140.8939 209.148,-140.8939"/>
<polygon fill="#000000" stroke="#000000" points="205.6481,-140.8938 209.148,-150.8939 212.6481,-140.8939 205.6481,-140.8938"/>
</g>
</g>
</svg>
