<?xml version="1.0" encoding="UTF-8" standalone="no"?>
<!DOCTYPE svg PUBLIC "-//W3C//DTD SVG 1.1//EN"
 "http://www.w3.org/Graphics/SVG/1.1/DTD/svg11.dtd">
<!-- Generated by graphviz version 2.40.1 (20161225.0304)
 -->
<!-- Title: dependencies Pages: 1 -->
<svg width="602pt" height="284pt"
 viewBox="0.00 0.00 602.00 284.00" xmlns="http://www.w3.org/2000/svg" xmlns:xlink="http://www.w3.org/1999/xlink">
<g id="graph0" class="graph" transform="scale(1 1) rotate(0) translate(4 280)">
<title>dependencies</title>
<polygon fill="#ffffff" stroke="transparent" points="-4,4 -4,-280 598,-280 598,4 -4,4"/>
<text text-anchor="start" x="276.0091" y="-42.4" font-family="sans-serif" font-weight="bold" font-size="14.00" fill="#000000">Legend</text>
<polygon fill="#ffffb3" stroke="transparent" points="63,-10 63,-30 83,-30 83,-10 63,-10"/>
<text text-anchor="start" x="86.629" y="-15.4" font-family="sans-serif" font-size="14.00" fill="#000000"> &#160;Declarations</text>
<polygon fill="#8dd3c7" stroke="transparent" points="176,-10 176,-30 196,-30 196,-10 176,-10"/>
<text text-anchor="start" x="199.7251" y="-15.4" font-family="sans-serif" font-size="14.00" fill="#000000"> &#160;Module</text>
<polygon fill="#80b1d3" stroke="transparent" points="262,-10 262,-30 282,-30 282,-10 262,-10"/>
<text text-anchor="start" x="285.7812" y="-15.4" font-family="sans-serif" font-size="14.00" fill="#000000"> &#160;Bootstrap</text>
<polygon fill="#fdb462" stroke="transparent" points="359,-10 359,-30 379,-30 379,-10 359,-10"/>
<text text-anchor="start" x="382.6732" y="-15.4" font-family="sans-serif" font-size="14.00" fill="#000000"> &#160;Providers</text>
<polygon fill="#fb8072" stroke="transparent" points="455,-10 455,-30 475,-30 475,-10 455,-10"/>
<text text-anchor="start" x="478.7258" y="-15.4" font-family="sans-serif" font-size="14.00" fill="#000000"> &#160;Exports</text>
<g id="clust1" class="cluster">
<title>cluster_AngularWebStoreModule</title>
<polygon fill="none" stroke="#000000" stroke-dasharray="1,5" points="8,-70 8,-195 438,-195 438,-70 8,-70"/>
</g>
<g id="clust6" class="cluster">
<title>cluster_AngularWebStoreModule_providers</title>
<polygon fill="none" stroke="#000000" points="16,-78 16,-130 430,-130 430,-78 16,-78"/>
</g>
<g id="clust7" class="cluster">
<title>cluster_AppModule</title>
<polygon fill="none" stroke="#000000" stroke-dasharray="1,5" points="446,-70 446,-268 586,-268 586,-70 446,-70"/>
</g>
<g id="clust8" class="cluster">
<title>cluster_AppModule_declarations</title>
<polygon fill="none" stroke="#000000" points="455,-78 455,-130 577,-130 577,-78 455,-78"/>
</g>
<g id="clust12" class="cluster">
<title>cluster_AppModule_bootstrap</title>
<polygon fill="none" stroke="#000000" points="454,-208 454,-260 578,-260 578,-208 454,-208"/>
</g>
<!-- LocalStorageService -->
<g id="node1" class="node">
<title>LocalStorageService</title>
<ellipse fill="#fdb462" stroke="#000000" cx="331" cy="-104" rx="91.4481" ry="18"/>
<text text-anchor="middle" x="331" y="-99.8" font-family="Times,serif" font-size="14.00" fill="#000000">LocalStorageService</text>
</g>
<!-- AngularWebStoreModule -->
<g id="node3" class="node">
<title>AngularWebStoreModule</title>
<polygon fill="#8dd3c7" stroke="#000000" points="307.9003,-187 304.9003,-191 283.9003,-191 280.9003,-187 146.0997,-187 146.0997,-151 307.9003,-151 307.9003,-187"/>
<text text-anchor="middle" x="227" y="-164.8" font-family="Times,serif" font-size="14.00" fill="#000000">AngularWebStoreModule</text>
</g>
<!-- LocalStorageService&#45;&gt;AngularWebStoreModule -->
<g id="edge1" class="edge">
<title>LocalStorageService&#45;&gt;AngularWebStoreModule</title>
<path fill="none" stroke="#000000" d="M273.6129,-118.104C273.6129,-118.104 273.6129,-140.7209 273.6129,-140.7209"/>
<polygon fill="#000000" stroke="#000000" points="270.113,-140.7209 273.6129,-150.7209 277.113,-140.7209 270.113,-140.7209"/>
</g>
<!-- SessionStorageService -->
<g id="node2" class="node">
<title>SessionStorageService</title>
<ellipse fill="#fdb462" stroke="#000000" cx="123" cy="-104" rx="98.9916" ry="18"/>
<text text-anchor="middle" x="123" y="-99.8" font-family="Times,serif" font-size="14.00" fill="#000000">SessionStorageService</text>
</g>
<!-- SessionStorageService&#45;&gt;AngularWebStoreModule -->
<g id="edge2" class="edge">
<title>SessionStorageService&#45;&gt;AngularWebStoreModule</title>
<path fill="none" stroke="#000000" d="M184.148,-118.4256C184.148,-118.4256 184.148,-140.8939 184.148,-140.8939"/>
<polygon fill="#000000" stroke="#000000" points="180.6481,-140.8938 184.148,-150.8939 187.6481,-140.8939 180.6481,-140.8938"/>
</g>
<!-- AppComponent -->
<g id="node4" class="node">
<title>AppComponent</title>
<polygon fill="#ffffb3" stroke="#000000" points="568.9399,-122 463.0601,-122 463.0601,-86 568.9399,-86 568.9399,-122"/>
<text text-anchor="middle" x="516" y="-99.8" font-family="Times,serif" font-size="14.00" fill="#000000">AppComponent</text>
</g>
<!-- AppModule -->
<g id="node5" class="node">
<title>AppModule</title>
<polygon fill="#8dd3c7" stroke="#000000" points="557.6571,-187 554.6571,-191 533.6571,-191 530.6571,-187 474.3429,-187 474.3429,-151 557.6571,-151 557.6571,-187"/>
<text text-anchor="middle" x="516" y="-164.8" font-family="Times,serif" font-size="14.00" fill="#000000">AppModule</text>
</g>
<!-- AppComponent&#45;&gt;AppModule -->
<g id="edge3" class="edge">
<title>AppComponent&#45;&gt;AppModule</title>
<path fill="none" stroke="#000000" d="M516,-122.1061C516,-122.1061 516,-140.991 516,-140.991"/>
<polygon fill="#000000" stroke="#000000" points="512.5001,-140.9909 516,-150.991 519.5001,-140.991 512.5001,-140.9909"/>
</g>
<!-- AppComponent  -->
<g id="node6" class="node">
<title>AppComponent </title>
<polygon fill="#80b1d3" stroke="#000000" points="570.439,-252 461.561,-252 461.561,-216 570.439,-216 570.439,-252"/>
<text text-anchor="middle" x="516" y="-229.8" font-family="Times,serif" font-size="14.00" fill="#000000">AppComponent </text>
</g>
<!-- AppModule&#45;&gt;AppComponent  -->
<g id="edge4" class="edge">
<title>AppModule&#45;&gt;AppComponent </title>
<path fill="none" stroke="#000000" stroke-dasharray="1,5" d="M516,-187.1061C516,-187.1061 516,-205.991 516,-205.991"/>
<polygon fill="#000000" stroke="#000000" points="512.5001,-205.9909 516,-215.991 519.5001,-205.991 512.5001,-205.9909"/>
</g>
</g>
</svg>
